<?xml version="1.0" encoding="UTF-8"?>
<!-- Created with Inkscape (http://www.inkscape.org/) -->
<svg width="700" height="700" version="1.1" xml:space="preserve" xmlns="http://www.w3.org/2000/svg"><g transform="matrix(1.0015 0 0 1.0015 -.52084 -.52083)" fill="#cdab8f"><g transform="matrix(.91146 0 0 .91146 -131.25 -21.875)" fill="#cdab8f" stroke-width="1.1412"><rect x="254.12" y="24.571" width="109.55" height="109.55"/><rect x="473.22" y="24.571" width="109.55" height="109.55"/><rect x="692.33" y="24.571" width="109.55" height="109.55"/><rect x="144.57" y="134.12" width="109.55" height="109.55"/><rect x="363.67" y="134.12" width="109.55" height="109.55"/><rect x="582.78" y="134.12" width="109.55" height="109.55"/><rect x="801.88" y="134.12" width="109.55" height="109.55"/><rect x="254.12" y="243.67" width="109.55" height="109.55"/><rect x="692.33" y="243.67" width="109.55" height="109.55"/><rect x="144.57" y="353.22" width="109.55" height="109.55"/><rect x="363.67" y="353.22" width="109.55" height="109.55"/><rect x="582.78" y="353.22" width="109.55" height="109.55"/><rect x="801.88" y="353.22" width="109.55" height="109.55"/><rect x="254.12" y="462.78" width="109.55" height="109.55"/><rect x="473.22" y="462.78" width="109.55" height="109.55"/><rect x="692.33" y="462.78" width="109.55" height="109.55"/><rect x="144.57" y="572.33" width="109.55" height="109.55"/><rect x="363.67" y="572.33" width="109.55" height="109.55"/><rect x="582.78" y="572.33" width="109.55" height="109.55"/><rect x="801.88" y="572.33" width="109.55" height="109.55"/><rect x="254.12" y="681.88" width="109.55" height="109.55"/><rect x="473.22" y="681.88" width="109.55" height="109.55"/><rect x="692.33" y="681.88" width="109.55" height="109.55"/><rect x="473.22" y="243.67" width="109.55" height="109.55"/></g></g><g transform="matrix(1.0015 0 0 1.0015 -.52084 -.52084)" fill="#63452c" fill-rule="evenodd"><rect x="200.22" y="200.22" width="99.85" height="99.85"/><rect x=".52008" y=".52008" width="99.85" height="99.85"/><rect x="200.22" y=".52008" width="99.85" height="99.85"/><rect x="399.93" y=".52008" width="99.85" height="99.85"/><rect x="599.63" y=".52008" width="99.85" height="99.85"/><rect x="100.37" y="100.37" width="99.85" height="99.85"/><rect x="300.07" y="100.37" width="99.85" height="99.85"/><rect x="499.78" y="100.37" width="99.85" height="99.85"/><rect x=".52008" y="200.22" width="99.85" height="99.85"/><rect x="399.93" y="200.22" width="99.85" height="99.85"/><rect x="599.63" y="200.22" width="99.85" height="99.85"/><rect x="100.37" y="300.07" width="99.85" height="99.85"/><rect x="300.07" y="300.07" width="99.85" height="99.85"/><rect x="499.78" y="300.07" width="99.85" height="99.85"/><rect x=".52008" y="399.93" width="99.85" height="99.85"/><rect x="200.22" y="399.93" width="99.85" height="99.85"/><rect x="399.93" y="399.93" width="99.85" height="99.85"/><rect x="599.63" y="399.93" width="99.85" height="99.85"/><rect x="100.37" y="499.78" width="99.85" height="99.85"/><rect x="300.07" y="499.78" width="99.85" height="99.85"/><rect x="499.78" y="499.78" width="99.85" height="99.85"/><rect x=".52008" y="599.63" width="99.85" height="99.85"/><rect x="200.22" y="599.63" width="99.85" height="99.85"/><rect x="399.93" y="599.63" width="99.85" height="99.85"/><rect x="599.63" y="599.63" width="99.85" height="99.85"/></g></svg>
